<mxfile host="Electron" modified="2025-06-23T14:59:20.789Z" agent="Mozilla/5.0 (Macintosh; Intel Mac OS X 10_15_7) AppleWebKit/537.36 (KHTML, like Gecko) draw.io/21.1.2 Chrome/106.0.5249.199 Electron/21.4.3 Safari/537.36" etag="bSwuhh38MTBKo76pX7e-" version="21.1.2" type="device">
  <diagram name="Page-1" id="lIGqZpMaBN4NJN3-Ng-W">
    <mxGraphModel dx="1553" dy="1025" grid="1" gridSize="10" guides="1" tooltips="1" connect="1" arrows="1" fold="1" page="1" pageScale="1" pageWidth="1100" pageHeight="850" math="0" shadow="0">
      <root>
        <mxCell id="0" />
        <mxCell id="1" parent="0" />
        <mxCell id="riA5b1nAxZIxLpvbB7OY-20" value="" style="rounded=1;whiteSpace=wrap;html=1;arcSize=50;rotation=-11;gradientColor=#FF3333;gradientDirection=east;strokeColor=none;opacity=30;" vertex="1" parent="1">
          <mxGeometry x="474.95" y="256.14" width="530" height="70" as="geometry" />
        </mxCell>
        <mxCell id="riA5b1nAxZIxLpvbB7OY-1" value="" style="ellipse;whiteSpace=wrap;html=1;aspect=fixed;strokeWidth=8;strokeColor=#FFFFFF;fillColor=#FF3333;" vertex="1" parent="1">
          <mxGeometry x="480" y="360" width="20" height="20" as="geometry" />
        </mxCell>
        <mxCell id="riA5b1nAxZIxLpvbB7OY-3" value="" style="ellipse;whiteSpace=wrap;html=1;aspect=fixed;strokeWidth=8;strokeColor=#FFFFFF;fillColor=#FF3333;" vertex="1" parent="1">
          <mxGeometry x="600" y="280" width="20" height="20" as="geometry" />
        </mxCell>
        <mxCell id="riA5b1nAxZIxLpvbB7OY-4" value="" style="curved=1;endArrow=open;html=1;rounded=0;exitX=0.637;exitY=0.079;exitDx=0;exitDy=0;entryX=0;entryY=0.5;entryDx=0;entryDy=0;strokeWidth=3;endFill=0;exitPerimeter=0;strokeColor=#FF3333;endSize=8;" edge="1" parent="1" source="riA5b1nAxZIxLpvbB7OY-1" target="riA5b1nAxZIxLpvbB7OY-3">
          <mxGeometry width="50" height="50" relative="1" as="geometry">
            <mxPoint x="590" y="500" as="sourcePoint" />
            <mxPoint x="640" y="450" as="targetPoint" />
            <Array as="points">
              <mxPoint x="510" y="320" />
              <mxPoint x="560" y="290" />
            </Array>
          </mxGeometry>
        </mxCell>
        <mxCell id="riA5b1nAxZIxLpvbB7OY-6" value="" style="ellipse;whiteSpace=wrap;html=1;aspect=fixed;strokeWidth=8;strokeColor=#FFFFFF;fillColor=#0000FF;" vertex="1" parent="1">
          <mxGeometry x="600" y="440" width="20" height="20" as="geometry" />
        </mxCell>
        <mxCell id="riA5b1nAxZIxLpvbB7OY-7" value="" style="curved=1;endArrow=open;html=1;rounded=0;entryX=0.5;entryY=1;entryDx=0;entryDy=0;strokeWidth=2;endFill=0;exitX=0;exitY=0.5;exitDx=0;exitDy=0;endSize=8;strokeColor=#0000FF;" edge="1" parent="1" source="riA5b1nAxZIxLpvbB7OY-6">
          <mxGeometry width="50" height="50" relative="1" as="geometry">
            <mxPoint x="570" y="450" as="sourcePoint" />
            <mxPoint x="490" y="380" as="targetPoint" />
            <Array as="points">
              <mxPoint x="560" y="450" />
              <mxPoint x="510" y="420" />
            </Array>
          </mxGeometry>
        </mxCell>
        <mxCell id="riA5b1nAxZIxLpvbB7OY-8" value="" style="curved=1;endArrow=open;html=1;rounded=0;exitX=1;exitY=1;exitDx=0;exitDy=0;entryX=1;entryY=0;entryDx=0;entryDy=0;strokeWidth=2;endFill=0;endSize=8;strokeColor=#0000FF;" edge="1" parent="1" source="riA5b1nAxZIxLpvbB7OY-3" target="riA5b1nAxZIxLpvbB7OY-6">
          <mxGeometry width="50" height="50" relative="1" as="geometry">
            <mxPoint x="700" y="392" as="sourcePoint" />
            <mxPoint x="807" y="320" as="targetPoint" />
            <Array as="points">
              <mxPoint x="650" y="330" />
              <mxPoint x="650" y="410" />
            </Array>
          </mxGeometry>
        </mxCell>
        <mxCell id="riA5b1nAxZIxLpvbB7OY-10" value="" style="ellipse;whiteSpace=wrap;html=1;aspect=fixed;strokeWidth=8;strokeColor=#FFFFFF;fillColor=#FF3333;" vertex="1" parent="1">
          <mxGeometry x="960" y="280" width="20" height="20" as="geometry" />
        </mxCell>
        <mxCell id="riA5b1nAxZIxLpvbB7OY-12" value="" style="ellipse;whiteSpace=wrap;html=1;aspect=fixed;strokeWidth=8;strokeColor=#FFFFFF;fillColor=#0000FF;" vertex="1" parent="1">
          <mxGeometry x="960" y="440" width="20" height="20" as="geometry" />
        </mxCell>
        <mxCell id="riA5b1nAxZIxLpvbB7OY-14" value="" style="curved=1;endArrow=open;html=1;rounded=0;exitX=1;exitY=1;exitDx=0;exitDy=0;entryX=1;entryY=0;entryDx=0;entryDy=0;strokeWidth=2;endFill=0;endSize=8;strokeColor=#0000FF;" edge="1" parent="1" source="riA5b1nAxZIxLpvbB7OY-10" target="riA5b1nAxZIxLpvbB7OY-12">
          <mxGeometry width="50" height="50" relative="1" as="geometry">
            <mxPoint x="1060" y="392" as="sourcePoint" />
            <mxPoint x="1167" y="320" as="targetPoint" />
            <Array as="points">
              <mxPoint x="1010" y="330" />
              <mxPoint x="1010" y="410" />
            </Array>
          </mxGeometry>
        </mxCell>
        <mxCell id="riA5b1nAxZIxLpvbB7OY-15" value="" style="curved=1;endArrow=open;html=1;rounded=0;exitX=1;exitY=1;exitDx=0;exitDy=0;entryX=1;entryY=0;entryDx=0;entryDy=0;strokeWidth=2;endFill=0;endSize=8;strokeColor=#0000FF;" edge="1" parent="1">
          <mxGeometry width="50" height="50" relative="1" as="geometry">
            <mxPoint x="962" y="441" as="sourcePoint" />
            <mxPoint x="962" y="295" as="targetPoint" />
            <Array as="points">
              <mxPoint x="929" y="408" />
              <mxPoint x="929" y="328" />
            </Array>
          </mxGeometry>
        </mxCell>
        <mxCell id="riA5b1nAxZIxLpvbB7OY-16" value="" style="curved=1;endArrow=open;html=1;rounded=0;exitX=1;exitY=1;exitDx=0;exitDy=0;entryX=1;entryY=0;entryDx=0;entryDy=0;strokeWidth=3;endFill=0;strokeColor=#FF3333;endSize=8;" edge="1" parent="1">
          <mxGeometry width="50" height="50" relative="1" as="geometry">
            <mxPoint x="961" y="281" as="sourcePoint" />
            <mxPoint x="978.0710678118655" y="283.9289321881346" as="targetPoint" />
            <Array as="points">
              <mxPoint x="931" y="241" />
              <mxPoint x="971" y="201" />
              <mxPoint x="1011" y="241" />
            </Array>
          </mxGeometry>
        </mxCell>
        <mxCell id="riA5b1nAxZIxLpvbB7OY-17" value="" style="rounded=1;whiteSpace=wrap;html=1;rotation=-9;gradientColor=#FF3333;gradientDirection=east;strokeColor=none;opacity=30;fillColor=#FFCCCC;" vertex="1" parent="1">
          <mxGeometry x="490.06" y="322.61" width="484.91" height="10" as="geometry" />
        </mxCell>
        <mxCell id="riA5b1nAxZIxLpvbB7OY-18" value="" style="rounded=1;whiteSpace=wrap;html=1;rotation=0;gradientColor=#FF3333;gradientDirection=east;strokeColor=none;opacity=30;fillColor=#FFCCCC;" vertex="1" parent="1">
          <mxGeometry x="610" y="285" width="364.91" height="10" as="geometry" />
        </mxCell>
        <mxCell id="riA5b1nAxZIxLpvbB7OY-21" value="" style="endArrow=open;html=1;rounded=0;endFill=0;strokeWidth=3;endSize=14;strokeColor=#000000;" edge="1" parent="1">
          <mxGeometry width="50" height="50" relative="1" as="geometry">
            <mxPoint x="680" y="370" as="sourcePoint" />
            <mxPoint x="900" y="370" as="targetPoint" />
          </mxGeometry>
        </mxCell>
      </root>
    </mxGraphModel>
  </diagram>
</mxfile>
